<svg width="480" height="158" xmlns="http://www.w3.org/2000/svg" xmlns:xlink="http://www.w3.org/1999/xlink" overflow="hidden"><defs><clipPath id="clip0"><rect x="177" y="-39" width="480" height="158"/></clipPath></defs><g clip-path="url(#clip0)" transform="translate(-177 39)"><path d="M177.987-15.6693C177.987-28.0231 188.002-38.0376 200.356-38.0376L311.618-38.0376C323.973-38.0376 333.987-28.0231 333.987-15.6693L333.987 95.594C333.987 107.948 323.973 117.962 311.618 117.962L200.356 117.962C188.002 117.962 177.987 107.948 177.987 95.594ZM205.203 102.677C198.613 102.677 193.272 97.3357 193.272 90.7474L193.272-10.7856C193.272-17.3739 198.613-22.7151 205.203-22.7151L218.81-22.7151C236.74-22.7151 250.019-4.54672 238.55 6.93827L205.279 40.2551 233.834 70.1697C247.678 84.6716 231.465 102.677 216.104 102.677ZM248.382-22.7151 259.882-22.7151C277.812-22.7151 291.091-4.54672 279.622 6.93827L246.35 40.2551 307.515 102.652 242.968 102.641C256.837 102.641 265.592 79.3084 250.748 63.8547L228.082 40.2551 254.47 13.0541C268.679-1.59387 258.366-20.4389 248.382-22.7151ZM318.687 90.7474 269.154 40.2551 295.541 13.0541C309.751-1.59387 299.437-20.4389 289.454-22.7151L306.735-22.7151C313.324-22.7151 318.665-17.3739 318.665-10.7856Z" fill="#003E90" fill-rule="evenodd"/><path d="M388.648 51.2972 388.648 84.1787 403.391 84.1787C411.035 84.1787 416.833 82.7506 420.785 79.8945 424.737 77.0432 426.714 72.8903 426.714 67.4435 426.714 62.0608 424.902 58.0231 421.278 55.3317 417.655 52.6419 412.254 51.2972 405.074 51.2972ZM388.648-4.78326 388.648 26.4832 400.029 26.4832C407.944 26.4832 413.864 25.1527 417.788 22.4886 421.714 19.8261 423.679 15.7658 423.679 10.3094 423.679 5.3777 421.83 1.62942 418.135-0.937265 414.443-3.50059 409-4.78326 401.81-4.78326ZM523.146-5.38934 523.146 30.5194 536.292 30.5194C544.395 30.5194 550.473 29.0546 554.528 26.1283 558.578 23.2018 560.605 18.8137 560.605 12.9592 560.605 6.64594 558.347 2.01154 553.833-0.948511 549.321-3.90839 542.188-5.38934 532.438-5.38934ZM619.541-30 657-30 657 110 619.541 110ZM486.498-30 542.323-30C560.926-30 574.735-26.9936 583.742-20.9808 592.75-14.9698 597.254-5.82098 597.254 6.46193 597.254 15.5308 594.876 22.9876 590.122 28.8356 585.368 34.682 578.501 38.5903 569.52 40.562 576.912 43.2534 582.857 50.9006 587.348 63.508L604.136 110 565.062 110 552.698 71.6829C550.722 65.5103 548.019 61.2405 544.594 58.8787 541.168 56.5135 535.828 55.3317 528.581 55.3317L523.146 55.3317 523.146 110 486.498 110ZM352-30 409.525-30C426.528-30 439.311-26.96 447.878-20.8801 456.448-14.8051 460.73-5.75383 460.73 6.27003 460.73 14.3537 458.488 21.0701 454.005 26.4256 449.522 31.7781 442.998 35.6367 434.427 38.0051 444.048 39.7785 451.441 43.5365 456.616 49.2838 461.788 55.0263 464.374 62.3664 464.374 71.2927 464.374 84.4233 459.663 94.1588 450.242 100.495 440.82 106.832 426.289 110 406.656 110L352 110Z" fill="#003E90" fill-rule="evenodd"/></g></svg>